<mxfile host="app.diagrams.net" modified="2022-01-07T02:26:53.128Z" agent="5.0 (Windows NT 6.1; Win64; x64) AppleWebKit/537.36 (KHTML, like Gecko) Chrome/96.0.4664.45 Safari/537.36" etag="6qQOAxo9LtnVAw_kViM9" version="16.2.2" type="github" pages="2">
  <diagram id="jQa9sGm4R0DZDFu90RpT" name="Page-1">
    <mxGraphModel dx="1182" dy="675" grid="1" gridSize="10" guides="1" tooltips="1" connect="1" arrows="1" fold="1" page="1" pageScale="1" pageWidth="827" pageHeight="1169" math="0" shadow="0">
      <root>
        <mxCell id="0" />
        <mxCell id="1" parent="0" />
        <mxCell id="32XMmCokE1lOzzrugzDl-2" value="版本结构树" style="rounded=0;whiteSpace=wrap;html=1;fontStyle=1;fontSize=18;" parent="1" vertex="1">
          <mxGeometry x="20" y="10" width="120" height="60" as="geometry" />
        </mxCell>
        <mxCell id="8WR-aKJWOomidM0wkgMh-3" value="ios的云识别sdk" style="text;html=1;resizable=0;autosize=1;align=center;verticalAlign=middle;points=[];fillColor=none;strokeColor=none;rounded=0;fontStyle=1;fontSize=14;" parent="1" vertex="1">
          <mxGeometry x="280" y="180" width="120" height="20" as="geometry" />
        </mxCell>
        <mxCell id="8WR-aKJWOomidM0wkgMh-4" value="天翼视讯apk" style="text;html=1;resizable=0;autosize=1;align=center;verticalAlign=middle;points=[];fillColor=none;strokeColor=none;rounded=0;fontStyle=1;fontSize=14;" parent="1" vertex="1">
          <mxGeometry x="290" y="210" width="100" height="20" as="geometry" />
        </mxCell>
        <mxCell id="8WR-aKJWOomidM0wkgMh-5" value="天翼视讯keepalive脚本" style="text;html=1;resizable=0;autosize=1;align=center;verticalAlign=middle;points=[];fillColor=none;strokeColor=none;rounded=0;fontStyle=1;fontSize=14;" parent="1" vertex="1">
          <mxGeometry x="289" y="240" width="160" height="20" as="geometry" />
        </mxCell>
        <mxCell id="8WR-aKJWOomidM0wkgMh-6" value="天翼视讯web应用的安装包" style="text;html=1;resizable=0;autosize=1;align=center;verticalAlign=middle;points=[];fillColor=none;strokeColor=none;rounded=0;fontStyle=1;fontSize=14;" parent="1" vertex="1">
          <mxGeometry x="289" y="280" width="180" height="20" as="geometry" />
        </mxCell>
        <mxCell id="8WR-aKJWOomidM0wkgMh-7" value="" style="shape=curlyBracket;whiteSpace=wrap;html=1;rounded=1;" parent="1" vertex="1">
          <mxGeometry x="160" y="110" width="20" height="130" as="geometry" />
        </mxCell>
        <mxCell id="8WR-aKJWOomidM0wkgMh-10" value="" style="shape=curlyBracket;whiteSpace=wrap;html=1;rounded=1;size=0.5;" parent="1" vertex="1">
          <mxGeometry x="260" y="185" width="20" height="100" as="geometry" />
        </mxCell>
        <mxCell id="8WR-aKJWOomidM0wkgMh-12" value="" style="shape=curlyBracket;whiteSpace=wrap;html=1;rounded=1;" parent="1" vertex="1">
          <mxGeometry x="20" y="200" width="20" height="1050" as="geometry" />
        </mxCell>
        <mxCell id="8WR-aKJWOomidM0wkgMh-14" value="Docs" style="text;html=1;resizable=0;autosize=1;align=center;verticalAlign=middle;points=[];fillColor=none;strokeColor=none;rounded=0;fontSize=17;fontStyle=1" parent="1" vertex="1">
          <mxGeometry x="60" y="1220" width="60" height="30" as="geometry" />
        </mxCell>
        <mxCell id="8WR-aKJWOomidM0wkgMh-15" value="versions" style="text;html=1;resizable=0;autosize=1;align=center;verticalAlign=middle;points=[];fillColor=none;strokeColor=none;rounded=0;fontSize=17;fontStyle=1" parent="1" vertex="1">
          <mxGeometry x="45" y="840" width="90" height="30" as="geometry" />
        </mxCell>
        <mxCell id="8WR-aKJWOomidM0wkgMh-16" value="others" style="text;html=1;resizable=0;autosize=1;align=center;verticalAlign=middle;points=[];fillColor=none;strokeColor=none;rounded=0;fontSize=17;fontStyle=1" parent="1" vertex="1">
          <mxGeometry x="55" y="180" width="70" height="30" as="geometry" />
        </mxCell>
        <mxCell id="8WR-aKJWOomidM0wkgMh-17" value="ms10" style="text;html=1;resizable=0;autosize=1;align=center;verticalAlign=middle;points=[];fillColor=none;strokeColor=none;rounded=0;fontStyle=1;fontSize=17;" parent="1" vertex="1">
          <mxGeometry x="190" y="105" width="60" height="30" as="geometry" />
        </mxCell>
        <mxCell id="8WR-aKJWOomidM0wkgMh-18" value="qoe" style="text;html=1;resizable=0;autosize=1;align=center;verticalAlign=middle;points=[];fillColor=none;strokeColor=none;rounded=0;fontStyle=1;fontSize=17;" parent="1" vertex="1">
          <mxGeometry x="190" y="155" width="50" height="30" as="geometry" />
        </mxCell>
        <mxCell id="8WR-aKJWOomidM0wkgMh-19" value="&lt;span style=&quot;color: rgb(26, 26, 26); font-family: monospace; font-size: 7px;&quot;&gt;TelecomAR&lt;/span&gt;" style="text;html=1;resizable=0;autosize=1;align=center;verticalAlign=middle;points=[];fillColor=none;strokeColor=none;rounded=0;fontStyle=1;fontSize=17;" parent="1" vertex="1">
          <mxGeometry x="180" y="220" width="80" height="30" as="geometry" />
        </mxCell>
        <mxCell id="8WR-aKJWOomidM0wkgMh-23" value="Application" style="text;html=1;resizable=0;autosize=1;align=center;verticalAlign=middle;points=[];fillColor=none;strokeColor=none;rounded=0;fontStyle=1;fontSize=17;" parent="1" vertex="1">
          <mxGeometry x="160" y="490" width="110" height="30" as="geometry" />
        </mxCell>
        <mxCell id="8WR-aKJWOomidM0wkgMh-24" value="Platform" style="text;html=1;resizable=0;autosize=1;align=center;verticalAlign=middle;points=[];fillColor=none;strokeColor=none;rounded=0;fontStyle=1;fontSize=17;" parent="1" vertex="1">
          <mxGeometry x="170" y="890" width="80" height="30" as="geometry" />
        </mxCell>
        <mxCell id="8WR-aKJWOomidM0wkgMh-25" value="Tools" style="text;html=1;resizable=0;autosize=1;align=center;verticalAlign=middle;points=[];fillColor=none;strokeColor=none;rounded=0;fontStyle=1;fontSize=17;" parent="1" vertex="1">
          <mxGeometry x="170" y="1169" width="60" height="30" as="geometry" />
        </mxCell>
        <mxCell id="8WR-aKJWOomidM0wkgMh-26" value="" style="shape=curlyBracket;whiteSpace=wrap;html=1;rounded=1;fontSize=18;" parent="1" vertex="1">
          <mxGeometry x="140" y="500" width="20" height="710" as="geometry" />
        </mxCell>
        <mxCell id="8WR-aKJWOomidM0wkgMh-28" value="CloudCoodination" style="text;html=1;resizable=0;autosize=1;align=center;verticalAlign=middle;points=[];fillColor=none;strokeColor=none;rounded=0;fontStyle=1;fontSize=17;" parent="1" vertex="1">
          <mxGeometry x="280" y="330" width="160" height="30" as="geometry" />
        </mxCell>
        <mxCell id="8WR-aKJWOomidM0wkgMh-29" value="" style="shape=curlyBracket;whiteSpace=wrap;html=1;rounded=1;fontSize=18;" parent="1" vertex="1">
          <mxGeometry x="260" y="345" width="20" height="320" as="geometry" />
        </mxCell>
        <mxCell id="8WR-aKJWOomidM0wkgMh-30" value="CloudLive" style="text;html=1;resizable=0;autosize=1;align=center;verticalAlign=middle;points=[];fillColor=none;strokeColor=none;rounded=0;fontStyle=1;fontSize=17;" parent="1" vertex="1">
          <mxGeometry x="290" y="390" width="100" height="30" as="geometry" />
        </mxCell>
        <mxCell id="8WR-aKJWOomidM0wkgMh-31" value="CloudMirror" style="text;html=1;resizable=0;autosize=1;align=center;verticalAlign=middle;points=[];fillColor=none;strokeColor=none;rounded=0;fontStyle=1;fontSize=17;" parent="1" vertex="1">
          <mxGeometry x="290" y="450" width="110" height="30" as="geometry" />
        </mxCell>
        <mxCell id="8WR-aKJWOomidM0wkgMh-32" value="CloudSpace" style="text;html=1;resizable=0;autosize=1;align=center;verticalAlign=middle;points=[];fillColor=none;strokeColor=none;rounded=0;fontStyle=1;fontSize=17;" parent="1" vertex="1">
          <mxGeometry x="300" y="510" width="110" height="30" as="geometry" />
        </mxCell>
        <mxCell id="8WR-aKJWOomidM0wkgMh-33" value="CloudTrain" style="text;html=1;resizable=0;autosize=1;align=center;verticalAlign=middle;points=[];fillColor=none;strokeColor=none;rounded=0;fontStyle=1;fontSize=17;" parent="1" vertex="1">
          <mxGeometry x="304" y="555" width="100" height="30" as="geometry" />
        </mxCell>
        <mxCell id="8WR-aKJWOomidM0wkgMh-34" value="PointCloud" style="text;html=1;resizable=0;autosize=1;align=center;verticalAlign=middle;points=[];fillColor=none;strokeColor=none;rounded=0;fontStyle=1;fontSize=17;" parent="1" vertex="1">
          <mxGeometry x="305" y="595" width="110" height="30" as="geometry" />
        </mxCell>
        <mxCell id="8WR-aKJWOomidM0wkgMh-35" value="SmartSecurity" style="text;html=1;resizable=0;autosize=1;align=center;verticalAlign=middle;points=[];fillColor=none;strokeColor=none;rounded=0;fontStyle=1;fontSize=17;" parent="1" vertex="1">
          <mxGeometry x="300" y="635" width="130" height="30" as="geometry" />
        </mxCell>
        <mxCell id="8WR-aKJWOomidM0wkgMh-36" value="专家培训Unity" style="text;html=1;resizable=0;autosize=1;align=center;verticalAlign=middle;points=[];fillColor=none;strokeColor=none;rounded=0;fontStyle=1;fontSize=14;" parent="1" vertex="1">
          <mxGeometry x="480" y="310" width="110" height="20" as="geometry" />
        </mxCell>
        <mxCell id="8WR-aKJWOomidM0wkgMh-37" value="" style="shape=curlyBracket;whiteSpace=wrap;html=1;rounded=1;fontSize=18;size=0.5;" parent="1" vertex="1">
          <mxGeometry x="450" y="315" width="20" height="60" as="geometry" />
        </mxCell>
        <mxCell id="8WR-aKJWOomidM0wkgMh-38" value="专家指导/专家培训燧光" style="text;html=1;resizable=0;autosize=1;align=center;verticalAlign=middle;points=[];fillColor=none;strokeColor=none;rounded=0;fontStyle=1;fontSize=14;" parent="1" vertex="1">
          <mxGeometry x="480" y="335" width="160" height="20" as="geometry" />
        </mxCell>
        <mxCell id="8WR-aKJWOomidM0wkgMh-39" value="专家指导/专家培训Pad" style="text;html=1;resizable=0;autosize=1;align=center;verticalAlign=middle;points=[];fillColor=none;strokeColor=none;rounded=0;fontStyle=1;fontSize=14;" parent="1" vertex="1">
          <mxGeometry x="480" y="360" width="160" height="20" as="geometry" />
        </mxCell>
        <mxCell id="8WR-aKJWOomidM0wkgMh-41" value="" style="shape=curlyBracket;whiteSpace=wrap;html=1;rounded=1;fontSize=18;size=0.5;" parent="1" vertex="1">
          <mxGeometry x="404" y="382.5" width="20" height="45" as="geometry" />
        </mxCell>
        <mxCell id="8WR-aKJWOomidM0wkgMh-42" value="景区应用安装包" style="text;html=1;resizable=0;autosize=1;align=center;verticalAlign=middle;points=[];fillColor=none;strokeColor=none;rounded=0;fontStyle=1;fontSize=14;" parent="1" vertex="1">
          <mxGeometry x="435" y="380" width="110" height="20" as="geometry" />
        </mxCell>
        <mxCell id="8WR-aKJWOomidM0wkgMh-43" value="景区应用apk" style="text;html=1;resizable=0;autosize=1;align=center;verticalAlign=middle;points=[];fillColor=none;strokeColor=none;rounded=0;fontStyle=1;fontSize=14;" parent="1" vertex="1">
          <mxGeometry x="430" y="420" width="100" height="20" as="geometry" />
        </mxCell>
        <mxCell id="8WR-aKJWOomidM0wkgMh-44" value="" style="shape=curlyBracket;whiteSpace=wrap;html=1;rounded=1;fontSize=18;size=0.5;" parent="1" vertex="1">
          <mxGeometry x="404" y="452.5" width="20" height="27.5" as="geometry" />
        </mxCell>
        <mxCell id="8WR-aKJWOomidM0wkgMh-45" value="云魔镜apk" style="text;html=1;resizable=0;autosize=1;align=center;verticalAlign=middle;points=[];fillColor=none;strokeColor=none;rounded=0;fontStyle=1;fontSize=14;" parent="1" vertex="1">
          <mxGeometry x="440" y="440" width="80" height="20" as="geometry" />
        </mxCell>
        <mxCell id="8WR-aKJWOomidM0wkgMh-46" value="云魔镜安装包" style="text;html=1;resizable=0;autosize=1;align=center;verticalAlign=middle;points=[];fillColor=none;strokeColor=none;rounded=0;fontStyle=1;fontSize=14;" parent="1" vertex="1">
          <mxGeometry x="425" y="470" width="100" height="20" as="geometry" />
        </mxCell>
        <mxCell id="8WR-aKJWOomidM0wkgMh-47" value="大空间应用安装包" style="text;html=1;resizable=0;autosize=1;align=center;verticalAlign=middle;points=[];fillColor=none;strokeColor=none;rounded=0;fontStyle=1;fontSize=14;" parent="1" vertex="1">
          <mxGeometry x="415" y="515" width="130" height="20" as="geometry" />
        </mxCell>
        <mxCell id="8WR-aKJWOomidM0wkgMh-48" value="intel realsence点云采集端apk" style="text;html=1;resizable=0;autosize=1;align=center;verticalAlign=middle;points=[];fillColor=none;strokeColor=none;rounded=0;fontStyle=1;fontSize=14;" parent="1" vertex="1">
          <mxGeometry x="425" y="605" width="210" height="20" as="geometry" />
        </mxCell>
        <mxCell id="8WR-aKJWOomidM0wkgMh-53" value="" style="shape=curlyBracket;whiteSpace=wrap;html=1;rounded=1;fontSize=14;" parent="1" vertex="1">
          <mxGeometry x="260" y="750" width="20" height="290" as="geometry" />
        </mxCell>
        <mxCell id="8WR-aKJWOomidM0wkgMh-54" value="Center" style="text;html=1;resizable=0;autosize=1;align=center;verticalAlign=middle;points=[];fillColor=none;strokeColor=none;rounded=0;fontStyle=1;fontSize=17;" parent="1" vertex="1">
          <mxGeometry x="320" y="730" width="70" height="30" as="geometry" />
        </mxCell>
        <mxCell id="8WR-aKJWOomidM0wkgMh-55" value="StrongEdge" style="text;html=1;resizable=0;autosize=1;align=center;verticalAlign=middle;points=[];fillColor=none;strokeColor=none;rounded=0;fontStyle=1;fontSize=17;" parent="1" vertex="1">
          <mxGeometry x="309" y="820" width="110" height="30" as="geometry" />
        </mxCell>
        <mxCell id="8WR-aKJWOomidM0wkgMh-56" value="Terminal" style="text;html=1;resizable=0;autosize=1;align=center;verticalAlign=middle;points=[];fillColor=none;strokeColor=none;rounded=0;fontStyle=1;fontSize=17;" parent="1" vertex="1">
          <mxGeometry x="310" y="950" width="90" height="30" as="geometry" />
        </mxCell>
        <mxCell id="8WR-aKJWOomidM0wkgMh-57" value="WeakEdge" style="text;html=1;resizable=0;autosize=1;align=center;verticalAlign=middle;points=[];fillColor=none;strokeColor=none;rounded=0;fontStyle=1;fontSize=17;" parent="1" vertex="1">
          <mxGeometry x="305" y="1020" width="100" height="30" as="geometry" />
        </mxCell>
        <mxCell id="8WR-aKJWOomidM0wkgMh-58" value="上飞的插件工具，内容编排应用安装包，postgres安装包，openresty安装包，ossminio安装包" style="text;html=1;resizable=0;autosize=1;align=center;verticalAlign=middle;points=[];fillColor=none;strokeColor=none;rounded=0;fontStyle=1;fontSize=13;" parent="1" vertex="1">
          <mxGeometry x="257" y="1174" width="570" height="20" as="geometry" />
        </mxCell>
        <mxCell id="8WR-aKJWOomidM0wkgMh-59" value="newstart双机脚本和渲染平台web应用安装脚本" style="text;html=1;resizable=0;autosize=1;align=center;verticalAlign=middle;points=[];fillColor=none;strokeColor=none;rounded=0;fontStyle=1;fontSize=13;" parent="1" vertex="1">
          <mxGeometry x="405" y="735" width="290" height="20" as="geometry" />
        </mxCell>
        <mxCell id="8WR-aKJWOomidM0wkgMh-60" value="EdgeManager" style="text;html=1;resizable=0;autosize=1;align=center;verticalAlign=middle;points=[];fillColor=none;strokeColor=none;rounded=0;fontStyle=1;fontSize=12;" parent="1" vertex="1">
          <mxGeometry x="470" y="775" width="90" height="20" as="geometry" />
        </mxCell>
        <mxCell id="8WR-aKJWOomidM0wkgMh-61" value="MS10Agent" style="text;html=1;resizable=0;autosize=1;align=center;verticalAlign=middle;points=[];fillColor=none;strokeColor=none;rounded=0;fontStyle=1;fontSize=12;" parent="1" vertex="1">
          <mxGeometry x="474" y="805" width="80" height="20" as="geometry" />
        </mxCell>
        <mxCell id="8WR-aKJWOomidM0wkgMh-62" value="RenderNode" style="text;html=1;resizable=0;autosize=1;align=center;verticalAlign=middle;points=[];fillColor=none;strokeColor=none;rounded=0;fontStyle=1;fontSize=12;" parent="1" vertex="1">
          <mxGeometry x="469" y="830" width="90" height="20" as="geometry" />
        </mxCell>
        <mxCell id="8WR-aKJWOomidM0wkgMh-63" value="SteamVRDriver" style="text;html=1;resizable=0;autosize=1;align=center;verticalAlign=middle;points=[];fillColor=none;strokeColor=none;rounded=0;fontStyle=1;fontSize=12;" parent="1" vertex="1">
          <mxGeometry x="464" y="860" width="100" height="20" as="geometry" />
        </mxCell>
        <mxCell id="8WR-aKJWOomidM0wkgMh-64" value="UnitySDK" style="text;html=1;resizable=0;autosize=1;align=center;verticalAlign=middle;points=[];fillColor=none;strokeColor=none;rounded=0;fontStyle=1;fontSize=12;" parent="1" vertex="1">
          <mxGeometry x="470" y="900" width="70" height="20" as="geometry" />
        </mxCell>
        <mxCell id="8WR-aKJWOomidM0wkgMh-65" value="" style="shape=curlyBracket;whiteSpace=wrap;html=1;rounded=1;fontSize=13;" parent="1" vertex="1">
          <mxGeometry x="425" y="775" width="20" height="135" as="geometry" />
        </mxCell>
        <mxCell id="8WR-aKJWOomidM0wkgMh-66" value="渲染平台边缘的安装脚本" style="text;html=1;resizable=0;autosize=1;align=center;verticalAlign=middle;points=[];fillColor=none;strokeColor=none;rounded=0;fontStyle=0;fontSize=12;" parent="1" vertex="1">
          <mxGeometry x="564" y="775" width="150" height="20" as="geometry" />
        </mxCell>
        <mxCell id="8WR-aKJWOomidM0wkgMh-67" value="云魔镜驱动，代理虚机安装包，一机多路的steamvr驱动" style="text;html=1;resizable=0;autosize=1;align=center;verticalAlign=middle;points=[];fillColor=none;strokeColor=none;rounded=0;fontStyle=0;fontSize=12;" parent="1" vertex="1">
          <mxGeometry x="570" y="825" width="310" height="20" as="geometry" />
        </mxCell>
        <mxCell id="8WR-aKJWOomidM0wkgMh-68" value="大空间的驱动" style="text;html=1;resizable=0;autosize=1;align=center;verticalAlign=middle;points=[];fillColor=none;strokeColor=none;rounded=0;fontStyle=0;fontSize=12;" parent="1" vertex="1">
          <mxGeometry x="570" y="860" width="90" height="20" as="geometry" />
        </mxCell>
        <mxCell id="8WR-aKJWOomidM0wkgMh-69" value="SDK" style="text;html=1;resizable=0;autosize=1;align=center;verticalAlign=middle;points=[];fillColor=none;strokeColor=none;rounded=0;fontStyle=0;fontSize=12;" parent="1" vertex="1">
          <mxGeometry x="590" y="900" width="40" height="20" as="geometry" />
        </mxCell>
        <mxCell id="8WR-aKJWOomidM0wkgMh-70" value="云识别、大空间、上飞协作Android" style="text;html=1;resizable=0;autosize=1;align=center;verticalAlign=middle;points=[];fillColor=none;strokeColor=none;rounded=0;fontStyle=0;fontSize=12;" parent="1" vertex="1">
          <mxGeometry x="410" y="955" width="200" height="20" as="geometry" />
        </mxCell>
        <mxCell id="8WR-aKJWOomidM0wkgMh-71" value="" style="shape=curlyBracket;whiteSpace=wrap;html=1;rounded=1;fontSize=13;" parent="1" vertex="1">
          <mxGeometry x="404" y="980" width="20" height="90" as="geometry" />
        </mxCell>
        <mxCell id="8WR-aKJWOomidM0wkgMh-72" value="DistinguishAlgorihm" style="text;html=1;resizable=0;autosize=1;align=center;verticalAlign=middle;points=[];fillColor=none;strokeColor=none;rounded=0;fontStyle=1;fontSize=12;" parent="1" vertex="1">
          <mxGeometry x="434" y="980" width="130" height="20" as="geometry" />
        </mxCell>
        <mxCell id="8WR-aKJWOomidM0wkgMh-73" value="easydetectGPU" style="text;html=1;resizable=0;autosize=1;align=center;verticalAlign=middle;points=[];fillColor=none;strokeColor=none;rounded=0;fontStyle=1;fontSize=12;" parent="1" vertex="1">
          <mxGeometry x="434" y="1020" width="100" height="20" as="geometry" />
        </mxCell>
        <mxCell id="8WR-aKJWOomidM0wkgMh-74" value="天翼视讯的算法平台安装包" style="text;html=1;resizable=0;autosize=1;align=center;verticalAlign=middle;points=[];fillColor=none;strokeColor=none;rounded=0;fontStyle=1;fontSize=12;" parent="1" vertex="1">
          <mxGeometry x="430" y="1060" width="160" height="20" as="geometry" />
        </mxCell>
        <mxCell id="8WR-aKJWOomidM0wkgMh-76" value="&lt;pre style=&quot;font-family: 宋体; font-size: 12pt;&quot;&gt;&lt;span style=&quot;&quot;&gt;四川移动算法&lt;/span&gt;&lt;/pre&gt;" style="text;html=1;resizable=0;autosize=1;align=center;verticalAlign=middle;points=[];fillColor=none;strokeColor=none;rounded=0;fontStyle=1;fontSize=12;labelBackgroundColor=#ffffff;" parent="1" vertex="1">
          <mxGeometry x="540" y="1010" width="120" height="50" as="geometry" />
        </mxCell>
      </root>
    </mxGraphModel>
  </diagram>
  <diagram id="hz5sy0NaJAC6ZRI45JpO" name="第 2 页">
    <mxGraphModel dx="868" dy="433" grid="1" gridSize="10" guides="1" tooltips="1" connect="1" arrows="1" fold="1" page="1" pageScale="1" pageWidth="827" pageHeight="1169" math="0" shadow="0">
      <root>
        <mxCell id="wYiromf9dic1UQOpbPdD-0" />
        <mxCell id="wYiromf9dic1UQOpbPdD-1" parent="wYiromf9dic1UQOpbPdD-0" />
      </root>
    </mxGraphModel>
  </diagram>
</mxfile>
